<svg width="64px" height="64px" viewBox="-2.4 -2.4 64.80 64.80" id="Layer_1" version="1.1" xml:space="preserve" xmlns="http://www.w3.org/2000/svg" xmlns:xlink="http://www.w3.org/1999/xlink" fill="#ffffff"><g id="SVGRepo_bgCarrier" stroke-width="0" transform="translate(0,0), scale(1)"><path transform="translate(-2.4, -2.4), scale(2.025)" d="M16,25.474781584213762C18.78803269979129,25.585916050040296,21.55921686026468,25.42086543480081,23.895819626503474,23.895819626503478C26.886001020496455,21.944198380972683,30.072109626850246,19.54291567387766,30.516810405780287,16C30.99394739607486,12.19866615577169,28.739915249670936,8.672062993043529,26.162464941470603,5.837535058529399C23.43437276244103,2.8373400732812843,20.051450856114176,-0.13620505079270329,16.000000000000004,0.03526753384400827C12.03579870934618,0.2030473898683643,9.397103818340085,3.78762776166283,6.662832582504434,6.66283258250443C4.0323062777496546,9.42894510771997,0.35146976135672786,12.211388795110361,0.8178089944755342,15.999999999999996C1.2726369778878186,19.69509205290077,5.551128559745812,21.319407879031765,8.70952504410445,23.290474955895547C10.94685228862399,24.68672843251957,13.364829546433748,25.369740398455477,16,25.474781584213762" fill="#004cff" strokewidth="0"></path></g><g id="SVGRepo_tracerCarrier" stroke-linecap="round" stroke-linejoin="round" stroke="#CCCCCC" stroke-width="0.24"></g><g id="SVGRepo_iconCarrier"> <g id="Bars"> <g> <path d="M14,56H2c-1.104,0-2,0.896-2,2s0.896,2,2,2h12 c1.104,0,2-0.896,2-2S15.104,56,14,56z M34,56H22c-1.104,0-2,0.896-2,2s0.896,2,2,2h12c1.104,0,2-0.896,2-2S35.104,56,34,56z M54,56H42c-1.104,0-2,0.896-2,2s0.896,2,2,2h12c1.104,0,2-0.896,2-2S55.104,56,54,56z M14,48H2c-1.104,0-2,0.896-2,2s0.896,2,2,2 h12c1.104,0,2-0.896,2-2S15.104,48,14,48z M34,48H22c-1.104,0-2,0.896-2,2s0.896,2,2,2h12c1.104,0,2-0.896,2-2S35.104,48,34,48z M42,52h12c1.104,0,2-0.896,2-2s-0.896-2-2-2H42c-1.104,0-2,0.896-2,2S40.896,52,42,52z" style="fill-rule:evenodd;clip-rule:evenodd;fill:#ffffff;"></path> </g> </g> <g id="Bars_3_"> <g> <path d="M14,40H2c-1.104,0-2,0.896-2,2s0.896,2,2,2h12 c1.104,0,2-0.896,2-2S15.104,40,14,40z M54,40H42c-1.104,0-2,0.896-2,2s0.896,2,2,2h12c1.104,0,2-0.896,2-2S55.104,40,54,40z M14,32H2c-1.104,0-2,0.896-2,2s0.896,2,2,2h12c1.104,0,2-0.896,2-2S15.104,32,14,32z M34,32H22c-1.104,0-2,0.896-2,2s0.896,2,2,2 h12c1.104,0,2-0.896,2-2S35.104,32,34,32z M42,36h12c1.104,0,2-0.896,2-2s-0.896-2-2-2H42c-1.104,0-2,0.896-2,2S40.896,36,42,36z" style="fill-rule:evenodd;clip-rule:evenodd;fill:#ffffff;"></path> </g> </g> <g id="Bars_2_"> <g> <path d="M14,24H2c-1.104,0-2,0.896-2,2s0.896,2,2,2h12 c1.104,0,2-0.896,2-2S15.104,24,14,24z M14,16H2c-1.104,0-2,0.896-2,2s0.896,2,2,2h12c1.104,0,2-0.896,2-2S15.104,16,14,16z M54,16H42c-1.104,0-2,0.896-2,2s0.896,2,2,2h12c1.104,0,2-0.896,2-2S55.104,16,54,16z" style="fill-rule:evenodd;clip-rule:evenodd;fill:#ffffff;"></path> </g> </g> <g id="Bar"> <g> <path d="M14,0H2C0.896,0,0,0.896,0,2s0.896,2,2,2h12c1.104,0,2-0.896,2-2S15.104,0,14,0z" style="fill:#ff5d47;"></path> </g> </g> <g></g> <g></g> <g></g> <g></g> <g></g> <g></g> <g></g> <g></g> <g></g> <g></g> <g></g> <g></g> <g></g> <g></g> <g></g> </g></svg>